<svg width="172" height="123" viewBox="0 0 172 123" fill="none" xmlns="http://www.w3.org/2000/svg">
<path d="M78.4745 0H30C13.4315 0 0 13.4315 0 30V64.6649C0 89.0736 27.5961 103.266 47.4505 89.0673L95.9251 54.4024C119.658 37.4307 107.651 0 78.4745 0Z" fill="url(#paint0_linear_46_3)"/>
<path d="M27.584 51.168C26.352 51.168 25.248 50.968 24.272 50.568C23.296 50.168 22.512 49.576 21.92 48.792C21.344 48.008 21.04 47.064 21.008 45.96H25.376C25.44 46.584 25.656 47.064 26.024 47.4C26.392 47.72 26.872 47.88 27.464 47.88C28.072 47.88 28.552 47.744 28.904 47.472C29.256 47.184 29.432 46.792 29.432 46.296C29.432 45.88 29.288 45.536 29 45.264C28.728 44.992 28.384 44.768 27.968 44.592C27.568 44.416 26.992 44.216 26.24 43.992C25.152 43.656 24.264 43.32 23.576 42.984C22.888 42.648 22.296 42.152 21.8 41.496C21.304 40.84 21.056 39.984 21.056 38.928C21.056 37.36 21.624 36.136 22.76 35.256C23.896 34.36 25.376 33.912 27.2 33.912C29.056 33.912 30.552 34.36 31.688 35.256C32.824 36.136 33.432 37.368 33.512 38.952H29.072C29.04 38.408 28.84 37.984 28.472 37.68C28.104 37.36 27.632 37.2 27.056 37.2C26.56 37.2 26.16 37.336 25.856 37.608C25.552 37.864 25.4 38.24 25.4 38.736C25.4 39.28 25.656 39.704 26.168 40.008C26.68 40.312 27.48 40.64 28.568 40.992C29.656 41.36 30.536 41.712 31.208 42.048C31.896 42.384 32.488 42.872 32.984 43.512C33.48 44.152 33.728 44.976 33.728 45.984C33.728 46.944 33.48 47.816 32.984 48.6C32.504 49.384 31.8 50.008 30.872 50.472C29.944 50.936 28.848 51.168 27.584 51.168ZM50.7016 34.152L44.8696 45.432V51H40.7656V45.432L34.9336 34.152H39.5896L42.8536 41.208L46.0936 34.152H50.7016ZM63.3232 34.152V37.44H56.4592V40.992H61.5952V44.184H56.4592V51H52.3552V34.152H63.3232ZM78.3202 39.576C78.3202 40.552 78.0962 41.448 77.6482 42.264C77.2002 43.064 76.5122 43.712 75.5842 44.208C74.6562 44.704 73.5042 44.952 72.1282 44.952H69.5842V51H65.4802V34.152H72.1282C73.4722 34.152 74.6082 34.384 75.5362 34.848C76.4642 35.312 77.1602 35.952 77.6242 36.768C78.0882 37.584 78.3202 38.52 78.3202 39.576ZM71.8162 41.688C72.6002 41.688 73.1842 41.504 73.5682 41.136C73.9522 40.768 74.1442 40.248 74.1442 39.576C74.1442 38.904 73.9522 38.384 73.5682 38.016C73.1842 37.648 72.6002 37.464 71.8162 37.464H69.5842V41.688H71.8162Z" fill="#082946"/>
<defs>
<linearGradient id="paint0_linear_46_3" x1="1.38614e-07" y1="11.838" x2="77.9525" y2="54.7131" gradientUnits="userSpaceOnUse">
<stop stop-color="#C5DCFE"/>
<stop offset="1" stop-color="#3CD0FF"/>
</linearGradient>
</defs>
</svg>
