<svg width="328" height="213" viewBox="0 0 328 213" fill="none" xmlns="http://www.w3.org/2000/svg">
<path d="M327.219 0H0V213L327.219 0Z" fill="url(#paint0_linear_46_4)"/>
<path d="M61.168 87.336C58.704 87.336 56.496 86.936 54.544 86.136C52.592 85.336 51.024 84.152 49.84 82.584C48.688 81.016 48.08 79.128 48.016 76.92H56.752C56.88 78.168 57.312 79.128 58.048 79.8C58.784 80.44 59.744 80.76 60.928 80.76C62.144 80.76 63.104 80.488 63.808 79.944C64.512 79.368 64.864 78.584 64.864 77.592C64.864 76.76 64.576 76.072 64 75.528C63.456 74.984 62.768 74.536 61.936 74.184C61.136 73.832 59.984 73.432 58.48 72.984C56.304 72.312 54.528 71.64 53.152 70.968C51.776 70.296 50.592 69.304 49.6 67.992C48.608 66.68 48.112 64.968 48.112 62.856C48.112 59.72 49.248 57.272 51.52 55.512C53.792 53.72 56.752 52.824 60.4 52.824C64.112 52.824 67.104 53.72 69.376 55.512C71.648 57.272 72.864 59.736 73.024 62.904H64.144C64.08 61.816 63.68 60.968 62.944 60.36C62.208 59.72 61.264 59.4 60.112 59.4C59.12 59.4 58.32 59.672 57.712 60.216C57.104 60.728 56.8 61.48 56.8 62.472C56.8 63.56 57.312 64.408 58.336 65.016C59.36 65.624 60.96 66.28 63.136 66.984C65.312 67.72 67.072 68.424 68.416 69.096C69.792 69.768 70.976 70.744 71.968 72.024C72.96 73.304 73.456 74.952 73.456 76.968C73.456 78.888 72.96 80.632 71.968 82.2C71.008 83.768 69.6 85.016 67.744 85.944C65.888 86.872 63.696 87.336 61.168 87.336ZM107.403 53.304L95.7393 75.864V87H87.5312V75.864L75.8673 53.304H85.1793L91.7073 67.416L98.1873 53.304H107.403ZM132.646 53.304V59.88H118.918V66.984H129.19V73.368H118.918V87H110.71V53.304H132.646ZM162.64 64.152C162.64 66.104 162.192 67.896 161.296 69.528C160.4 71.128 159.024 72.424 157.168 73.416C155.312 74.408 153.008 74.904 150.256 74.904H145.168V87H136.96V53.304H150.256C152.944 53.304 155.216 53.768 157.072 54.696C158.928 55.624 160.32 56.904 161.248 58.536C162.176 60.168 162.64 62.04 162.64 64.152ZM149.632 68.376C151.2 68.376 152.368 68.008 153.136 67.272C153.904 66.536 154.288 65.496 154.288 64.152C154.288 62.808 153.904 61.768 153.136 61.032C152.368 60.296 151.2 59.928 149.632 59.928H145.168V68.376H149.632Z" fill="#082946"/>
<defs>
<linearGradient id="paint0_linear_46_4" x1="2.63704e-07" y1="20.5" x2="141.5" y2="106" gradientUnits="userSpaceOnUse">
<stop stop-color="#C5DCFE"/>
<stop offset="1" stop-color="#3CD0FF"/>
</linearGradient>
</defs>
</svg>
