<svg width="172" height="123" viewBox="0 0 172 123" fill="none" xmlns="http://www.w3.org/2000/svg">
<path d="M172 0H0V123L172 0Z" fill="url(#paint0_linear_46_2)"/>
<path d="M26.584 46.168C25.352 46.168 24.248 45.968 23.272 45.568C22.296 45.168 21.512 44.576 20.92 43.792C20.344 43.008 20.04 42.064 20.008 40.96H24.376C24.44 41.584 24.656 42.064 25.024 42.4C25.392 42.72 25.872 42.88 26.464 42.88C27.072 42.88 27.552 42.744 27.904 42.472C28.256 42.184 28.432 41.792 28.432 41.296C28.432 40.88 28.288 40.536 28 40.264C27.728 39.992 27.384 39.768 26.968 39.592C26.568 39.416 25.992 39.216 25.24 38.992C24.152 38.656 23.264 38.32 22.576 37.984C21.888 37.648 21.296 37.152 20.8 36.496C20.304 35.84 20.056 34.984 20.056 33.928C20.056 32.36 20.624 31.136 21.76 30.256C22.896 29.36 24.376 28.912 26.2 28.912C28.056 28.912 29.552 29.36 30.688 30.256C31.824 31.136 32.432 32.368 32.512 33.952H28.072C28.04 33.408 27.84 32.984 27.472 32.68C27.104 32.36 26.632 32.2 26.056 32.2C25.56 32.2 25.16 32.336 24.856 32.608C24.552 32.864 24.4 33.24 24.4 33.736C24.4 34.28 24.656 34.704 25.168 35.008C25.68 35.312 26.48 35.64 27.568 35.992C28.656 36.36 29.536 36.712 30.208 37.048C30.896 37.384 31.488 37.872 31.984 38.512C32.48 39.152 32.728 39.976 32.728 40.984C32.728 41.944 32.48 42.816 31.984 43.6C31.504 44.384 30.8 45.008 29.872 45.472C28.944 45.936 27.848 46.168 26.584 46.168ZM49.7016 29.152L43.8696 40.432V46H39.7656V40.432L33.9336 29.152H38.5896L41.8536 36.208L45.0936 29.152H49.7016ZM62.3232 29.152V32.44H55.4592V35.992H60.5952V39.184H55.4592V46H51.3552V29.152H62.3232ZM77.3202 34.576C77.3202 35.552 77.0962 36.448 76.6482 37.264C76.2002 38.064 75.5122 38.712 74.5842 39.208C73.6562 39.704 72.5042 39.952 71.1282 39.952H68.5842V46H64.4802V29.152H71.1282C72.4722 29.152 73.6082 29.384 74.5362 29.848C75.4642 30.312 76.1602 30.952 76.6242 31.768C77.0882 32.584 77.3202 33.52 77.3202 34.576ZM70.8162 36.688C71.6002 36.688 72.1842 36.504 72.5682 36.136C72.9522 35.768 73.1442 35.248 73.1442 34.576C73.1442 33.904 72.9522 33.384 72.5682 33.016C72.1842 32.648 71.6002 32.464 70.8162 32.464H68.5842V36.688H70.8162Z" fill="#082946"/>
<defs>
<linearGradient id="paint0_linear_46_2" x1="1.38614e-07" y1="11.838" x2="77.9525" y2="54.7131" gradientUnits="userSpaceOnUse">
<stop stop-color="#C5DCFE"/>
<stop offset="1" stop-color="#3CD0FF"/>
</linearGradient>
</defs>
</svg>
